<svg width="1472" height="1024" xmlns="http://www.w3.org/2000/svg" class="icon">
 <defs>
  <style type="text/css"/>
 </defs>
 <g>
  <title>background</title>
  <rect fill="none" id="canvas_background" height="402" width="582" y="-1" x="-1"/>
 </g>
 <g>
  <title>Layer 1</title>
  <path id="svg_1" fill="#5ABFC6" d="m1199.43392,687.35924c0,48.47627 -36.72444,87.77142 -82.14034,87.77142l-788.71871,0c-45.4159,0 -82.14035,-39.41757 -82.14035,-87.77142l0,-577.43073c0,-48.47627 36.84686,-87.77143 82.14035,-87.77143l788.71871,0c45.4159,0 82.14034,39.29516 82.14034,87.77143l0,577.43072l0,0.00001z"/>
  <path id="svg_2" fill="#EEBF2F" d="m989.00284,975.64615c0,17.99497 -17.13807,32.43992 -38.19342,32.43992l-516.1009,0c-21.05535,0 -38.19342,-14.44495 -38.19342,-32.43992c0,-17.87257 17.13807,-32.43993 38.19342,-32.43993l516.1009,0c21.05535,0 38.19342,14.56736 38.19342,32.43993z"/>
  <path id="svg_3" fill="#070606" d="m446.58276,471.78673c-43.33485,0 -78.59032,-35.25547 -78.59032,-78.59032s35.25547,-78.59031 78.59032,-78.59031s78.59032,35.25547 78.59032,78.59031s-35.25547,78.59032 -78.59032,78.59032zm0,-140.16497c-33.90891,0 -61.57466,27.66575 -61.57466,61.57465s27.66575,61.57466 61.57466,61.57466s61.57465,-27.66575 61.57466,-61.57466s-27.66575,-61.57465 -61.57466,-61.57465zm242.99342,140.16497c-43.33485,0 -78.59031,-35.25547 -78.59031,-78.59032s35.25547,-78.59031 78.59031,-78.59031s78.59032,35.25547 78.59032,78.59031s-35.25547,78.59032 -78.59032,78.59032zm-242.99342,-280.32995c-33.90891,0 -61.57466,27.66575 -61.57466,61.57466s27.66575,61.57466 61.57466,61.57466s61.57465,-27.66575 61.57466,-61.57466s-27.54334,-61.57466 -61.57466,-61.57466zm485.98685,280.32995c-43.33485,0 -78.59032,-35.25547 -78.59032,-78.59032s35.25547,-78.59031 78.59032,-78.59031s78.59032,35.25547 78.59032,78.59031s-35.25547,78.59032 -78.59032,78.59032zm-485.98685,-420.49492c-33.90891,0 -61.57466,27.66575 -61.57466,61.57466s27.66575,61.57465 61.57466,61.57465s61.57465,-27.66575 61.57466,-61.57465s-27.54334,-61.57466 -61.57466,-61.57466z"/>
  <path id="svg_4" fill="#EEBF2F" d="m754.70087,393.19641c0,35.98996 -29.13473,65.12469 -65.12469,65.12469c-35.98995,0 -65.12468,-29.13473 -65.12468,-65.12469c0,-35.98995 29.13473,-65.12468 65.12468,-65.12468c35.98996,0 65.12469,29.13473 65.12469,65.12468zm242.99342,0c0,35.98996 -29.13472,65.12469 -65.12468,65.12469c-35.98996,0 -65.12469,-29.13473 -65.12469,-65.12469c0,-35.98995 29.13473,-65.12468 65.12469,-65.12468c35.98996,0 65.12468,29.13473 65.12468,65.12468zm-485.98684,0c0,35.98996 -29.13473,65.12469 -65.12469,65.12469c-35.98996,0 -65.12469,-29.13473 -65.12469,-65.12469c0,-35.98995 29.13473,-65.12468 65.12469,-65.12468c35.98996,0 65.12468,29.13473 65.12469,65.12468z"/>
  <path id="svg_5" fill="#070606" d="m1120.96602,0l-855.43479,0c-55.3315,0 -100.38015,45.04865 -100.38015,100.38016l0,585.63251c0,55.3315 45.04865,100.38016 100.38015,100.38016l391.72744,0c-6.85523,8.20179 -11.13975,18.85188 -11.13975,30.48129l0,72.46957c0,12.97598 5.26384,24.7278 13.71046,33.29684l-231.73126,0c-27.91058,0 -50.67974,22.76915 -50.67974,50.67973s22.76916,50.67974 50.67974,50.67974l532.01482,0c27.91058,0 50.67974,-22.76916 50.67974,-50.67974s-22.76916,-50.67973 -50.67974,-50.67973l-232.83299,0c8.44662,-8.56904 13.71046,-20.32086 13.71046,-33.29684l0,-72.46957c0,-11.62941 -4.1621,-22.15708 -11.13975,-30.48129l391.11536,0c55.3315,0 100.38016,-45.04866 100.38016,-100.38016l0,-585.63251c0,-55.3315 -45.04866,-100.38016 -100.38016,-100.38016zm-132.82008,973.32026c0,15.42427 -12.60873,28.033 -28.033,28.033l-532.01482,0c-15.42427,0 -28.033,-12.60873 -28.033,-28.033s12.60873,-28.03299 28.033,-28.03299l532.01482,0c15.42427,-0.12242 28.033,12.48631 28.033,28.03299zm-319.38028,-83.97657l0,-72.46957c0,-13.71046 11.13975,-24.7278 24.7278,-24.7278s24.72779,11.13975 24.72779,24.7278l0,72.46957c0,13.71046 -11.13975,24.7278 -24.72779,24.7278s-24.7278,-11.13975 -24.7278,-24.7278zm529.93377,-203.33102c0,42.84519 -34.88822,77.73342 -77.73341,77.73342l-855.43479,0c-42.84518,0 -77.73341,-34.88823 -77.73341,-77.73342l0,-585.63251c0,-42.84519 34.88823,-77.73342 77.73341,-77.73342l855.43479,0c42.84519,0 77.73341,34.88823 77.73341,77.73342l0,585.63251z"/>
  <path id="svg_6" fill="#2BA5A5" d="m784.6925,762.88918c-0.36724,0.12242 0,0 0,0l336.15111,1.83622c42.35553,-2.57071 82.14034,-37.09169 82.14034,-82.75242l0,-422.20872c0,253.5211 -176.52217,462.36079 -418.29145,503.12492z"/>
 </g>
</svg>